<mxfile host="app.diagrams.net" modified="2024-02-27T19:36:38.172Z" agent="Mozilla/5.0 (Windows NT 10.0; Win64; x64) AppleWebKit/537.36 (KHTML, like Gecko) Chrome/121.0.0.0 Safari/537.36" version="23.1.7" etag="L4hXHYPGQ4MbVBhYmD-d" type="github">
  <diagram name="Page-1" id="lGSMvPYrF-3KVb2bGk2K">
    <mxGraphModel>
      <root>
        <mxCell id="0" />
        <mxCell id="1" parent="0" />
      </root>
    </mxGraphModel>
  </diagram>
</mxfile>
